<svg xmlns="http://www.w3.org/2000/svg" width="512" height="512" viewBox="0 0 512 512"><g transform="translate(30.72,30.72) scale(32.182857142857145)"><path d="M10.7297 7.56596c0.6762 -0.7667 1.8436 -0.72206 2.5928 -0.05957 0.766 0.67767 0.9426 1.86782 0.2207 2.62791l-2.9599 3.1143c-0.0583 0.0613 -0.1323 0.1073 -0.2129 0.1328l-1.83695 0.5781c-0.34393 0.108 -0.67514 -0.0122 -0.8877 -0.2051 -0.21234 -0.1929 -0.36303 -0.5103 -0.28808 -0.8632l0.39257 -1.8467 0.01758 -0.0615c0.02118 -0.0602 0.05335 -0.1169 0.09571 -0.1651zM3.44165 0.186081c2.22508 -0.2481406 4.39212 -0.2480871 6.61715 0 1.7087 0.190711 3.0813 1.562889 3.2647 3.275389 0.0637 0.59605 0.1103 1.18923 0.1396 1.78027 0.0171 0.34473 -0.249 0.63817 -0.5937 0.65528 -0.3444 0.01666 -0.6382 -0.2493 -0.6553 -0.59375 -0.0249 -0.50153 -0.0645 -1.0047 -0.1152 -1.51074H1.40161c-0.20602 2.05163 -0.2011 4.05764 0.01856 6.1123 0.12056 1.12717 1.03202 2.03977 2.16015 2.16597 0.66088 0.0737 1.31651 0.1253 1.96875 0.1534 0.34455 0.0148 0.61195 0.3059 0.59766 0.6504 -0.01486 0.3448 -0.30654 0.6124 -0.65137 0.5976 -0.68122 -0.0293 -1.3653 -0.0824 -2.05371 -0.1592 -1.70847 -0.191 -3.081491 -1.5629 -3.264648 -3.2754 -0.2361339 -2.20885 -0.2361668 -4.36723 0 -6.57613C0.36034 1.74914 1.73328 0.377059 3.44165 0.186081M6.30981 8.59819c0.41407 0.00011 0.74991 0.33593 0.75 0.75 -0.00004 0.41411 -0.3359 0.74991 -0.75 0.75001h-2.9121c-0.41408 -0.0001 -0.74996 -0.33591 -0.75 -0.75001 0.00009 -0.41406 0.33594 -0.74988 0.75 -0.75zm2.49024 -2.73633c0.41404 0.0002 0.75 0.33591 0.75 0.75 -0.00022 0.41391 -0.33609 0.7498 -0.75 0.75H3.39771c-0.41398 -0.00012 -0.74979 -0.33605 -0.75 -0.75 0 -0.41413 0.33589 -0.74987 0.75 -0.75z" fill="#2f6fed"/></g></svg>